<svg id="Layer_1" data-name="Layer 1" xmlns="http://www.w3.org/2000/svg" xmlns:xlink="http://www.w3.org/1999/xlink" viewBox="0 0 3840.18 761.4"><defs><style>.cls-1,.cls-10,.cls-11,.cls-12,.cls-13,.cls-14,.cls-15,.cls-16,.cls-17,.cls-18,.cls-19,.cls-2,.cls-20,.cls-21,.cls-22,.cls-23,.cls-24,.cls-25,.cls-26,.cls-27,.cls-28,.cls-29,.cls-3,.cls-30,.cls-31,.cls-32,.cls-33,.cls-34,.cls-35,.cls-36,.cls-37,.cls-38,.cls-39,.cls-4,.cls-40,.cls-41,.cls-42,.cls-43,.cls-44,.cls-45,.cls-46,.cls-47,.cls-48,.cls-49,.cls-5,.cls-50,.cls-51,.cls-52,.cls-53,.cls-54,.cls-55,.cls-6,.cls-7,.cls-8,.cls-9{fill:none;stroke-miterlimit:10;}.cls-1{stroke:url(#linear-gradient);}.cls-2{stroke:url(#linear-gradient-2);}.cls-3{stroke:url(#linear-gradient-3);}.cls-4{stroke:url(#linear-gradient-4);}.cls-5{stroke:url(#linear-gradient-5);}.cls-6{stroke:url(#linear-gradient-6);}.cls-7{stroke:url(#linear-gradient-7);}.cls-8{stroke:url(#linear-gradient-8);}.cls-9{stroke:url(#linear-gradient-9);}.cls-10{stroke:url(#linear-gradient-10);}.cls-11{stroke:url(#linear-gradient-11);}.cls-12{stroke:url(#linear-gradient-12);}.cls-13{stroke:url(#linear-gradient-13);}.cls-14{stroke:url(#linear-gradient-14);}.cls-15{stroke:url(#linear-gradient-15);}.cls-16{stroke:url(#linear-gradient-16);}.cls-17{stroke:url(#linear-gradient-17);}.cls-18{stroke:url(#linear-gradient-18);}.cls-19{stroke:url(#linear-gradient-19);}.cls-20{stroke:url(#linear-gradient-20);}.cls-21{stroke:url(#linear-gradient-21);}.cls-22{stroke:url(#linear-gradient-22);}.cls-23{stroke:url(#linear-gradient-23);}.cls-24{stroke:url(#linear-gradient-24);}.cls-25{stroke:url(#linear-gradient-25);}.cls-26{stroke:url(#linear-gradient-26);}.cls-27{stroke:url(#linear-gradient-27);}.cls-28{stroke:url(#linear-gradient-28);}.cls-29{stroke:url(#linear-gradient-29);}.cls-30{stroke:url(#linear-gradient-30);}.cls-31{stroke:url(#linear-gradient-31);}.cls-32{stroke:url(#linear-gradient-32);}.cls-33{stroke:url(#linear-gradient-33);}.cls-34{stroke:url(#linear-gradient-34);}.cls-35{stroke:url(#linear-gradient-35);}.cls-36{stroke:url(#linear-gradient-36);}.cls-37{stroke:url(#linear-gradient-37);}.cls-38{stroke:url(#linear-gradient-38);}.cls-39{stroke:url(#linear-gradient-39);}.cls-40{stroke:url(#linear-gradient-40);}.cls-41{stroke:url(#linear-gradient-41);}.cls-42{stroke:url(#linear-gradient-42);}.cls-43{stroke:url(#linear-gradient-43);}.cls-44{stroke:url(#linear-gradient-44);}.cls-45{stroke:url(#linear-gradient-45);}.cls-46{stroke:url(#linear-gradient-46);}.cls-47{stroke:url(#linear-gradient-47);}.cls-48{stroke:url(#linear-gradient-48);}.cls-49{stroke:url(#linear-gradient-49);}.cls-50{stroke:url(#linear-gradient-50);}.cls-51{stroke:url(#linear-gradient-51);}.cls-52{stroke:url(#linear-gradient-52);}.cls-53{stroke:url(#linear-gradient-53);}.cls-54{stroke:url(#linear-gradient-54);}.cls-55{stroke:url(#linear-gradient-55);}</style><linearGradient id="linear-gradient" x1="0.5" y1="1080.49" x2="3840.5" y2="1080.49" gradientUnits="userSpaceOnUse"><stop offset="0" stop-color="#373e4a"/><stop offset="0.51" stop-color="#4286f4"/><stop offset="1" stop-color="#373b44"/></linearGradient><linearGradient id="linear-gradient-2" x1="0.49" y1="1046.87" x2="3840.52" y2="1046.87" xlink:href="#linear-gradient"/><linearGradient id="linear-gradient-3" x1="0.49" y1="1013.73" x2="3840.54" y2="1013.73" xlink:href="#linear-gradient"/><linearGradient id="linear-gradient-4" x1="0.48" y1="981.87" x2="3840.56" y2="981.87" xlink:href="#linear-gradient"/><linearGradient id="linear-gradient-5" x1="0.49" y1="952.25" x2="3840.58" y2="952.25" xlink:href="#linear-gradient"/><linearGradient id="linear-gradient-6" x1="0.49" y1="923.52" x2="3840.6" y2="923.52" xlink:href="#linear-gradient"/><linearGradient id="linear-gradient-7" x1="0.49" y1="895.38" x2="3840.62" y2="895.38" xlink:href="#linear-gradient"/><linearGradient id="linear-gradient-8" x1="0.5" y1="865.83" x2="3840.63" y2="865.83" xlink:href="#linear-gradient"/><linearGradient id="linear-gradient-9" x1="0.5" y1="836.99" x2="3840.65" y2="836.99" xlink:href="#linear-gradient"/><linearGradient id="linear-gradient-10" x1="0.5" y1="810.57" x2="3840.66" y2="810.57" xlink:href="#linear-gradient"/><linearGradient id="linear-gradient-11" x1="0.5" y1="788.07" x2="3840.66" y2="788.07" xlink:href="#linear-gradient"/><linearGradient id="linear-gradient-12" x1="0.49" y1="774.61" x2="3840.66" y2="774.61" xlink:href="#linear-gradient"/><linearGradient id="linear-gradient-13" x1="0.49" y1="762.11" x2="3840.65" y2="762.11" xlink:href="#linear-gradient"/><linearGradient id="linear-gradient-14" x1="0.49" y1="750.53" x2="3840.65" y2="750.53" xlink:href="#linear-gradient"/><linearGradient id="linear-gradient-15" x1="0.49" y1="739.8" x2="3840.64" y2="739.8" xlink:href="#linear-gradient"/><linearGradient id="linear-gradient-16" x1="0.49" y1="729.81" x2="3840.64" y2="729.81" xlink:href="#linear-gradient"/><linearGradient id="linear-gradient-17" x1="0.49" y1="720.48" x2="3840.63" y2="720.48" xlink:href="#linear-gradient"/><linearGradient id="linear-gradient-18" x1="0.49" y1="711.56" x2="3840.62" y2="711.56" xlink:href="#linear-gradient"/><linearGradient id="linear-gradient-19" x1="0.5" y1="703.22" x2="3840.62" y2="703.22" xlink:href="#linear-gradient"/><linearGradient id="linear-gradient-20" x1="0.5" y1="695.76" x2="3840.61" y2="695.76" xlink:href="#linear-gradient"/><linearGradient id="linear-gradient-21" x1="0.5" y1="688.46" x2="3840.6" y2="688.46" xlink:href="#linear-gradient"/><linearGradient id="linear-gradient-22" x1="0.5" y1="681.54" x2="3840.59" y2="681.54" xlink:href="#linear-gradient"/><linearGradient id="linear-gradient-23" x1="0.5" y1="675.03" x2="3840.58" y2="675.03" xlink:href="#linear-gradient"/><linearGradient id="linear-gradient-24" x1="0.49" y1="668.83" x2="3840.57" y2="668.83" xlink:href="#linear-gradient"/><linearGradient id="linear-gradient-25" x1="0.49" y1="662.05" x2="3840.56" y2="662.05" xlink:href="#linear-gradient"/><linearGradient id="linear-gradient-26" x1="0.49" y1="653.74" x2="3840.55" y2="653.74" xlink:href="#linear-gradient"/><linearGradient id="linear-gradient-27" x1="0.49" y1="645.55" x2="3840.55" y2="645.55" xlink:href="#linear-gradient"/><linearGradient id="linear-gradient-28" x1="0.49" y1="637.37" x2="3840.54" y2="637.37" xlink:href="#linear-gradient"/><linearGradient id="linear-gradient-29" x1="0.49" y1="629.11" x2="3840.53" y2="629.11" xlink:href="#linear-gradient"/><linearGradient id="linear-gradient-30" x1="0.49" y1="620.63" x2="3840.52" y2="620.63" xlink:href="#linear-gradient"/><linearGradient id="linear-gradient-31" x1="0.5" y1="613.12" x2="3840.51" y2="613.12" xlink:href="#linear-gradient"/><linearGradient id="linear-gradient-32" x1="0.5" y1="605.93" x2="3840.5" y2="605.93" xlink:href="#linear-gradient"/><linearGradient id="linear-gradient-33" x1="0.5" y1="599.35" x2="3840.5" y2="599.35" xlink:href="#linear-gradient"/><linearGradient id="linear-gradient-34" x1="0.5" y1="592.23" x2="3840.5" y2="592.23" xlink:href="#linear-gradient"/><linearGradient id="linear-gradient-35" x1="0.49" y1="584.43" x2="3840.51" y2="584.43" xlink:href="#linear-gradient"/><linearGradient id="linear-gradient-36" x1="0.49" y1="576.07" x2="3840.51" y2="576.07" xlink:href="#linear-gradient"/><linearGradient id="linear-gradient-37" x1="0.49" y1="567.22" x2="3840.51" y2="567.22" xlink:href="#linear-gradient"/><linearGradient id="linear-gradient-38" x1="0.49" y1="558" x2="3840.51" y2="558" xlink:href="#linear-gradient"/><linearGradient id="linear-gradient-39" x1="0.5" y1="548.49" x2="3840.51" y2="548.49" xlink:href="#linear-gradient"/><linearGradient id="linear-gradient-40" x1="0.5" y1="538.8" x2="3840.51" y2="538.8" xlink:href="#linear-gradient"/><linearGradient id="linear-gradient-41" x1="0.5" y1="529.02" x2="3840.51" y2="529.02" xlink:href="#linear-gradient"/><linearGradient id="linear-gradient-42" x1="0.5" y1="519.26" x2="3840.51" y2="519.26" xlink:href="#linear-gradient"/><linearGradient id="linear-gradient-43" x1="0.5" y1="509.6" x2="3840.51" y2="509.6" xlink:href="#linear-gradient"/><linearGradient id="linear-gradient-44" x1="0.5" y1="500.16" x2="3840.51" y2="500.16" xlink:href="#linear-gradient"/><linearGradient id="linear-gradient-45" x1="0.5" y1="491.02" x2="3840.51" y2="491.02" xlink:href="#linear-gradient"/><linearGradient id="linear-gradient-46" x1="0.49" y1="482.29" x2="3840.51" y2="482.29" xlink:href="#linear-gradient"/><linearGradient id="linear-gradient-47" x1="0.49" y1="474.06" x2="3840.51" y2="474.06" xlink:href="#linear-gradient"/><linearGradient id="linear-gradient-48" x1="0.49" y1="466.43" x2="3840.51" y2="466.43" xlink:href="#linear-gradient"/><linearGradient id="linear-gradient-49" x1="0.49" y1="459.49" x2="3840.51" y2="459.49" xlink:href="#linear-gradient"/><linearGradient id="linear-gradient-50" x1="0.49" y1="453.35" x2="3840.51" y2="453.35" xlink:href="#linear-gradient"/><linearGradient id="linear-gradient-51" x1="0.49" y1="448.1" x2="3840.5" y2="448.1" xlink:href="#linear-gradient"/><linearGradient id="linear-gradient-52" x1="0.49" y1="443.84" x2="3840.5" y2="443.84" xlink:href="#linear-gradient"/><linearGradient id="linear-gradient-53" x1="0.49" y1="440.65" x2="3840.5" y2="440.65" xlink:href="#linear-gradient"/><linearGradient id="linear-gradient-54" x1="0.49" y1="438.65" x2="3840.5" y2="438.65" xlink:href="#linear-gradient"/><linearGradient id="linear-gradient-55" x1="0.5" y1="437.93" x2="3840.5" y2="437.93" xlink:href="#linear-gradient"/></defs><path class="cls-1" d="M.5,1080.5q770.54-.54,1541.06.17,690.75,0,1381.5-.25,458.71-.68,917.44.08" transform="translate(-0.48 -319.89)"/><path class="cls-2" d="M.5,1060.66c224-4.41,447.12-32.28,671.13-31.36,292.3,1.19,582.74,36,875,35.14,223.08-.66,445.42-12.55,668.61-8.33,237.67,4.49,474.52,10.49,712-3,304.29-17.24,609-3,913.28,7.51" transform="translate(-0.48 -319.89)"/><path class="cls-3" d="M.5,1041.14c108-3.13,215.42-10.42,322.74-23.17,124.13-14.76,247.93-32.67,373.16-33.77,163.66-1.45,327.87,12.69,489.89,35.11a2538.71,2538.71,0,0,0,368.65,24c111-.83,221-10.76,331.7-17.31,111.39-6.58,223.14-4.18,334.58-.24,117.62,4.16,235.19,10.38,352.89,11.94,122.34,1.62,242.65-5.56,364.22-18.45,300.53-31.85,602.16,0,902.17,21.9" transform="translate(-0.48 -319.89)"/><path class="cls-4" d="M.5,1021.94c111.91-3.49,222.9-12.41,333.62-29.1,127.16-19.17,254.22-45.77,383-50.13,158.58-5.37,317.52,13.66,473.24,42.4,124.67,23,248.39,35.13,375.36,33.48,111.15-1.45,220-16.38,330.43-26.53,111.34-10.23,223.59-6.61,335.08-1,119.58,6,239.05,15.05,358.8,17.17,123.64,2.18,242.57-9.15,364.55-27.71,295.42-44.93,592.25,7.79,885.91,41.43" transform="translate(-0.48 -319.89)"/><path class="cls-5" d="M.5,1003.05c116.14-3.28,231.08-13.3,345.55-33.35,128-22.42,255.8-56.31,385.59-65.46,156.85-11.06,313.19,12.27,466,46,124.61,27.52,248.3,43.71,376.23,41.5,113.22-2,222.23-22,334.07-36.09,112.81-14.2,227.38-9,340.51-1.72,121.37,7.85,242.59,19.52,364.26,21.91,60.89,1.2,121.92.08,182.58-5.65,59.78-5.66,117.19-19.14,175.89-30.86,290.61-58,582.55,18.58,869.31,63.71" transform="translate(-0.48 -319.89)"/><path class="cls-6" d="M.5,984.48c118.48-2.6,235.64-13,352-35.55,131.29-25.42,261.4-66.84,394.36-81.25,154.35-16.72,306,9.71,455.4,46.88C1329.46,946.2,1455.43,967.08,1587,964a1382.11,1382.11,0,0,0,169.36-14.63c55.24-8.14,109.24-22.2,164.27-31.09,112.74-18.22,228.46-11.61,341.75-2.8,123.55,9.62,246.88,23.94,370.87,26.72,61.61,1.38,123.44-.09,184.68-7.39,59.92-7.15,116.22-24,174.53-38.36,284.33-70.14,570.48,32.52,848.08,88" transform="translate(-0.48 -319.89)"/><path class="cls-7" d="M.5,966.23C120.61,964.53,239.35,954,357,929.33,412.59,917.7,467.7,903.93,522.73,890c80.82-20.51,160-46.79,242.87-58.36,149.57-20.88,293.21,7.44,437.12,46.8,131.53,36,261.27,62.45,398.4,58.37A1162.49,1162.49,0,0,0,1775.68,918c53.14-9.72,104.62-26,157.49-36.54,110.21-22,225.06-14.28,336.17-4.4,127.25,11.31,254.12,28.65,382,32.07,64.06,1.72,128.49-.12,192-9.49,59.89-8.85,114.62-29.1,172.32-46.08,115.35-33.93,233.28-33.45,350.67-10.63,160.23,31.14,315.6,85.22,474.24,123.31" transform="translate(-0.48 -319.89)"/><path class="cls-8" d="M.5,948.31c121.63-.81,241.87-11.68,360.65-38.4,56-12.6,111.47-27.79,166.69-43.57,82.63-23.62,163.16-54.23,248-69.34,73.63-13.1,148.47-15,222.49-4,71.8,10.63,141.51,31.75,210.85,52.62,133.14,40.08,265.08,70.91,405.11,65.81a996.82,996.82,0,0,0,169.33-21c54.57-11.51,106.68-30.94,160.79-43.7,111.29-26.23,229.12-16.46,341.66-4.88,129,13.27,257.53,33.32,387.31,36.76,62.63,1.66,125.62-.48,187.5-10.89,62.07-10.45,116.71-34.43,175.63-54.81,110-38.05,222.4-37,334.71-9.82,159,38.49,311.52,101.72,469.24,145.3" transform="translate(-0.48 -319.89)"/><path class="cls-9" d="M.5,930.72c125.08-.18,248.63-12.24,370.24-42.1,54.93-13.48,109.13-29.75,163-47,84.17-27,166-61.11,252.75-79.41,73.7-15.55,148.69-19.06,223-6,70.23,12.34,137.77,36.63,205.18,59.21,134.13,44.91,268.4,79.87,411,73.79a877.64,877.64,0,0,0,168.89-24.1c54.17-13.11,105.14-35,158.65-49.77,110-30.27,229.19-18.51,340.92-5.56,130.45,15.12,260.38,37.86,391.85,42.12,63,2,126.61-.21,188.71-11.82,62.6-11.71,115.93-38.11,174.1-62.05,106.8-43.95,215.2-44.1,325.31-12.49,64.7,18.57,127.39,43.64,190.13,67.83,91.17,35.16,182.78,68.7,276.24,97.34" transform="translate(-0.48 -319.89)"/><path class="cls-10" d="M.5,913.45c127.33-.07,253-13.7,376.22-46.52,55.71-14.85,110.54-32.88,164.8-52.32,87.83-31.48,173.38-69.56,264.75-90.07,70.85-15.91,142.7-19.67,213.9-3.86,66,14.65,128.72,41.67,191.69,65.65,136.36,51.92,275.16,92.31,422.53,85.34a776.19,776.19,0,0,0,168-27c53.63-14.67,103.28-39,156.07-55.56,108.54-34,228.67-20.29,339.34-5.89,133.64,17.38,266.67,43.53,401.67,48.14,63.22,2.15,127.13-.53,189.13-13.83,62.83-13.48,114.36-43,171.59-70.24,102.82-48.88,206.4-50.59,313.77-15.84,63.72,20.63,125,48.35,186.55,74.62,92.05,39.31,184.9,76.1,280,107.36" transform="translate(-0.48 -319.89)"/><path class="cls-11" d="M.5,896.52c130-.74,258.34-16.37,383.57-51.85C532,802.76,669.42,727.54,819.2,693.05c68.86-15.86,138.25-19.35,207-1.26,64.3,16.93,124.65,47.14,185.69,72.84,135.64,57.12,276.68,100,425.4,92.66a725.62,725.62,0,0,0,167.49-28.59c53.35-15.61,102.15-41.36,154.49-59.06,107.55-36.37,228.59-21.16,338.55-5.77C2432.25,782.67,2566,810.8,2702,815.94c63.39,2.4,127.57-.34,189.59-14.49,63.34-14.45,113.95-45.71,170.67-75.25,100.78-52.51,202.2-56.61,309-20.32,63.48,21.57,124.31,50.62,185.46,77.92,93.08,41.56,187.17,80.08,283.78,112.72" transform="translate(-0.48 -319.89)"/><path class="cls-12" d="M.5,879.91c131.07-1.48,260.53-17.34,387.08-52C534.78,787.66,672.41,715,821.33,682c68.56-15.18,137.62-18.2,206.07-1,64,16.09,124.32,44.86,185.23,69.58,135.43,55,275.2,95.23,422.74,87.82a768.56,768.56,0,0,0,168-27.72c53.53-14.95,103-39.53,155.64-56.44,108.21-34.78,228.58-20.65,339-5.88,133.75,17.9,266.85,44.78,402,49.62,63.24,2.27,127.2-.41,189.18-14,63-13.78,114.24-43.92,171.38-71.69,102.33-49.76,205.37-52,312.56-16.85,63.67,20.89,124.86,49,186.29,75.53,92.33,39.93,185.5,77.22,281,108.9" transform="translate(-0.48 -319.89)"/><path class="cls-13" d="M.5,863.65c132.44-2,263.43-17.83,391.63-51.52,58.11-15.27,115.37-33.63,172-53.73,84.36-30,166.85-65.48,254.58-84.81,68.59-15.11,138.16-18.53,206.84-2.43,66,15.46,128.38,43.91,191.3,68.38,133.43,51.9,270.42,88.63,414.74,81.36a819.94,819.94,0,0,0,169.07-26.82c53.9-14.31,104.12-37.73,157.19-54,109-33.39,229.17-19.89,340.18-5.61,131.32,16.88,262,42.12,394.57,47.13,63.25,2.38,127.16.07,189.33-12.56,63.1-12.81,115.31-41.42,173-67.82,104.19-47.64,209.63-49.29,318.1-15.34C3437.18,706,3499,732.94,3561,758.7c92,38.23,184.68,74.26,279.51,104.95" transform="translate(-0.48 -319.89)"/><path class="cls-14" d="M.5,847.72c133.42-2.26,265.56-17.72,395.13-50,58.66-14.63,116.56-32.18,173.85-51.47,83.38-28.06,164.79-62.25,251.15-80.55,68.16-14.45,137.24-17.46,205.5-2.28,65.52,14.57,127.8,41.46,190.48,64.85,133,49.63,268.76,83.77,411.76,76.34a874.05,874.05,0,0,0,169.47-26.08c54-13.71,104.81-36,158.14-51.42,109.35-31.66,228.68-19,339.84-5.28,130.34,16.14,260.1,40.3,391.6,45.14,62.94,2.33,126.49.15,188.46-11.82,62.75-12.13,115.57-39.61,173.62-64.27,106.15-45.1,213.76-45.64,323.46-13.17,64.63,19.13,127.14,44.9,189.73,69.7,91.62,36.31,183.74,70.83,277.81,100.33" transform="translate(-0.48 -319.89)"/><path class="cls-15" d="M.5,832.13C134.88,829.8,268.15,815,399.08,784.28c59.22-13.88,117.75-30.53,175.72-48.9,82.39-26.1,162.68-59,247.64-76.24,67.68-13.78,136.24-16.43,204-2.19,65,13.67,127.14,39,189.54,61.24,132.58,47.3,267,78.84,408.66,71.22A934.7,934.7,0,0,0,1794.46,764c54.13-13.11,105.45-34.26,159-48.86,109.59-29.87,228-18,339.17-4.75,129.27,15.46,258,38.59,388.31,43.35,62.58,2.29,125.71.28,187.43-11,62.4-11.41,115.82-37.73,174.13-60.69,108.29-42.65,218.28-42.41,329.56-11.57,159,44.08,310.3,113.92,468.43,161.65" transform="translate(-0.48 -319.89)"/><path class="cls-16" d="M.5,816.88C134.28,814.69,267.14,801,398,772.74c61.85-13.36,123-29.54,183.7-47.52C663.44,701,743,669.34,827,653.28c65.24-12.48,131.4-14.73,196.79-2.17,64.6,12.4,126.54,36.1,188.63,57.23,132.58,45.11,266.06,74.69,406.87,67A1000.77,1000.77,0,0,0,1790,750.66c54.42-12.58,106.39-32.68,160.34-46.43,110.14-28.06,227.83-16.94,339.31-4,128.48,14.92,256.46,37.22,385.93,41.68,62.36,2.15,125.14.22,186.69-10.64,62.13-11,116-36.5,174.71-57.63,109.29-39.34,220.8-38.33,332.48-9.76,159.81,40.89,312.55,107.25,471.09,153" transform="translate(-0.48 -319.89)"/><path class="cls-17" d="M.5,802c134.69-1.93,268.61-14.66,400.77-41,62.39-12.42,124.23-27.52,185.56-44.37,80.69-22.18,159.08-52.41,241.62-67.52,64.73-11.85,130.32-13.84,195.22-2.18,64.06,11.5,125.78,33.59,187.56,53.53,132,42.6,264.18,69.6,403.52,61.66,57.51-3.28,114.66-11.69,170.89-24.08,54.5-12,106.93-31,161.09-43.9,110.16-26.2,226.88-15.7,338.15-3.15,127.23,14.35,254,35.72,382.13,40.23,61.9,2.17,124.2.47,185.41-9.63,61.83-10.2,116.31-34.44,175.2-54,111.71-37.12,225.82-35.88,339.63-9.14,160.34,37.66,314.41,100,473.25,143.54" transform="translate(-0.48 -319.89)"/><path class="cls-18" d="M.5,787.42c136-1.56,271.27-13.25,405.08-37.65,63.12-11.51,125.76-25.53,188-41.27,79.94-20.24,157.5-49.18,239-63.11,64.21-11,129.15-12.37,193.44-1.3,61.69,10.62,121.42,30.32,181.16,48.55,131.86,40.23,263.11,65.2,401.53,57.11,59.5-3.47,118.58-12.11,176.85-24.53,53-11.28,104.35-28.7,157.15-40.41,108.54-24.08,222.8-14.56,332.27-2.69,126.28,13.69,252,34.22,379.12,39.27,63.51,2.52,127.5,1.08,190.38-8.78,59.78-9.38,113.52-31.61,170.88-49.32,114.59-35.37,231.59-34.58,348.21-9.8,161.41,34.3,317.27,92.73,477,133.93" transform="translate(-0.48 -319.89)"/><path class="cls-19" d="M.5,773.22c136.81-1.09,273.13-11.57,408.17-33.81,63.64-10.48,126.88-23.3,189.73-37.8C677.2,683.44,753.59,656,833.58,643c129.77-21.12,247.86,7.91,372,43.44,131.16,37.56,261.14,60,398,51.61,59.51-3.65,118.62-12.11,177-23.95,53.07-10.75,104.81-27.1,157.8-37.94,108.44-22.18,221.74-13.13,330.89-1.59,124.94,13.21,249.37,32.89,375,38,63,2.58,126.44,1.43,188.93-7.6,59.55-8.61,113.82-29.44,171.31-45.74,117.22-33.25,237-32.55,356-9.79,162.15,31,319.51,85.06,479.9,123.74" transform="translate(-0.48 -319.89)"/><path class="cls-20" d="M.5,759.36c137.64-.55,274.92-9.75,411.13-29.77,64.15-9.42,128-21,191.45-34.22,77.63-16.14,152.86-42,231.36-54.09,127.94-19.72,246.25,6.78,369.35,39.63,130.43,34.81,259.18,54.74,394.5,46.06,59.51-3.82,118.66-12.11,177.2-23.38,53.17-10.23,105.27-25.52,158.44-35.47,108.31-20.26,220.65-11.62,329.47-.4,123.57,12.75,246.66,31.61,370.91,36.88,62.48,2.65,125.36,1.8,187.44-6.37,59.35-7.82,114.14-27.2,171.74-42.16,284.64-74,571.28,41.67,847,103.29" transform="translate(-0.48 -319.89)"/><path class="cls-21" d="M.5,745.85c138.83,0,277.41-7.91,415.11-25.77,62.87-8.15,125.48-18.19,187.82-29.69,76.44-14.09,150.56-38,227.46-49.66,129-19.53,249.71,5.22,374.62,36,127.93,31.56,254.23,48.5,386.18,39.71,115.12-7.66,224.45-36.75,337.55-55.87,110.34-18.66,224-9.86,334.58,1.47,120.73,12.37,241.07,30.08,362.43,35.25,60.28,2.56,120.91,2.07,180.9-4.87,59.45-6.88,115-24.52,172.85-38.37,289-69.14,578.88,34,860.5,91.76" transform="translate(-0.48 -319.89)"/><path class="cls-22" d="M.5,732.7c139.6.62,279-6,417.78-21.59q95-10.68,189.36-26.17c75.25-12.22,148.27-34.38,223.78-45.08,127.35-18.05,248.18,4.16,372.14,32.21,127.14,28.76,252.29,43.32,382.73,34.24,114.86-8,225-35.68,338.33-52.86,110.14-16.7,222.89-8.28,333.15,2.76,119.41,11.95,238.44,28.9,358.42,34.24,59.79,2.67,119.89,2.48,179.48-3.62,59.3-6.08,115.28-22.17,173.26-34.77,292.29-63.51,585.2,27.25,871.57,80.64" transform="translate(-0.48 -319.89)"/><path class="cls-23" d="M.5,719.91c140.33,1.19,280.56-4.13,420.27-17.5q95.66-9.15,190.81-22.69c74.07-10.42,146-30.74,220.14-40.49,125.83-16.56,246.77,3.16,369.89,28.42,126.32,25.91,250.36,38.15,379.32,28.78,114.65-8.33,225.6-34.59,339.13-49.83,110-14.75,221.92-6.67,331.85,4.07,118.11,11.55,235.88,27.74,354.51,33.27,59.32,2.76,118.93,2.9,178.12-2.37s115.62-19.77,173.7-31.16c295.44-57.92,591.43,20.82,882.26,69.5" transform="translate(-0.48 -319.89)"/><path class="cls-24" d="M.5,707.48c139.37,1.68,278.7-2.27,417.67-13.2q99.6-7.83,198.82-19.88c73.1-8.81,144.22-27.45,217.34-36,122.82-14.4,242.22,2.44,362.95,24.57,127.86,23.43,252.85,33.54,382.74,23.46,113-8.77,223.23-33.24,335.5-46.44,108.32-12.74,218.22-5.25,326.41,5,117.2,11.06,234.05,26.61,351.68,32.53,60.93,3.07,122.08,3.57,182.94-1.14,59.3-4.59,116.29-17.73,174.7-27.86,297.33-51.54,595.41,15.47,889.25,59" transform="translate(-0.48 -319.89)"/><path class="cls-25" d="M.5,695.4c140,2.12,280-.71,419.71-9.61q100.21-6.39,200.13-16.51c71.88-7.22,142-23.84,213.77-31.45,121.75-12.91,241.2,1.6,361.38,21,127,20.46,251,28.32,379.45,18,112.93-9.07,223.87-32,336.41-43.35,108.2-10.86,217.56-3.64,325.54,6.29,116,10.67,231.76,25.44,348.18,31.53,60.52,3.16,121.24,4,181.75.15,59.28-3.77,116.71-15.23,175.27-24.21,300-46,600.86,9.83,898.41,48.19" transform="translate(-0.48 -319.89)"/><path class="cls-26" d="M.5,683.69c140.55,2.44,281.12.61,421.52-6.4q100.77-5,201.34-13.29c70.65-5.76,139.74-20.28,210.28-26.92,120.91-11.37,240.4.88,360.19,17.49,126.08,17.49,249.23,23.14,376.28,12.61,113-9.35,224.56-30.8,337.4-40.22,108.15-9,217.09-2.05,325,7.57,115,10.26,229.66,24.25,345,30.49,60.17,3.25,120.51,4.41,180.72,1.43,59.3-2.94,117.16-12.72,175.89-20.57,302.39-40.4,605.7,4.8,906.47,37.81" transform="translate(-0.48 -319.89)"/><path class="cls-27" d="M.5,672.35q211.56,3.92,423.09-3.63,101.27-3.79,202.41-10.3C695.44,654,763.6,641.63,832.91,636c120.32-9.78,239.88.29,359.44,14.15,125.19,14.52,247.53,18,373.25,7.29,113.06-9.62,225.3-29.47,338.49-37,108.18-7.23,216.86-.49,324.7,8.8,114,9.82,227.78,23,342.08,29.39,120.49,6.71,236.83-.62,356.45-14.23,304.4-34.65,609.74.44,913.18,28" transform="translate(-0.48 -319.89)"/><path class="cls-28" d="M.5,661.38q212.19,3.9,424.39-1.41,101.72-2.69,203.37-7.57c68.24-3.26,135.51-13.35,203.64-17.95,120-8.11,239.67-.16,359.2,11,124.3,11.56,245.92,12.93,370.39,2.07,113.26-9.89,226.11-28,339.69-33.81,108.31-5.5,216.89,1,324.84,10,113.2,9.37,226.18,21.73,339.6,28.21,120,6.85,237.09,1.85,356.57-9.36,306-28.7,612.81-3.14,918.31,18.9" transform="translate(-0.48 -319.89)"/><path class="cls-29" d="M.5,650.77q212.69,3.6,425.41.18,102.1-1.73,204.18-5.14c67.09-2.23,133.52-10,200.52-13.53,120-6.34,239.82-.43,359.51,8,123.43,8.66,244.4,7.94,367.72-3,113.57-10.12,227-26.49,341-30.5,108.57-3.82,217.23,2.47,325.43,11,112.53,8.87,224.87,20.38,337.57,26.93,119.69,7,237.55,4.22,357-4.53,307-22.5,614.74-5.86,921.62,10.66" transform="translate(-0.48 -319.89)"/><path class="cls-30" d="M.5,640.54q213,2.91,426.12,1,102.44-1,204.86-3.07c66-1.35,131.62-6.71,197.55-9.16,120.18-4.47,240.37-.52,360.44,5.18a2635.3,2635.3,0,0,0,365.25-8c114-10.34,228-24.8,342.53-27.12,109-2.21,217.9,3.85,326.52,12,112,8.35,223.9,18.95,336.06,25.54,119.61,7,238.2,6.45,357.8.23,307.48-16,615.38-7.63,922.87,3.45" transform="translate(-0.48 -319.89)"/><path class="cls-31" d="M.5,630.68q413.51,3.55,826.65-5.17c120.68-2.47,241.38-.4,362,2.63,121.78,3.06,241.7-1.76,363-12.9,114.56-10.52,229.06-22.94,344.22-23.65,109.51-.67,218.94,5.15,328.15,12.75,231.65,16.13,461.66,35.86,694.12,28.95,307.19-9.13,614.56-8.37,921.81-2.61" transform="translate(-0.48 -319.89)"/><path class="cls-32" d="M.5,621.19q412.23.54,824.46-.55,182.17-.5,364.36.32c121,.39,240.53-6.44,361-17.6,115.24-10.67,230.25-20.91,346.1-20.09,110.24.78,220.39,6.35,330.4,13.4,231.85,14.86,462.9,33.28,695.43,31.88,306.07-1.85,612.12-8,918.21-7.36" transform="translate(-0.48 -319.89)"/><path class="cls-33" d="M.5,612.09c274.69,1.18,549.39-.89,824.07-.66,121.61.11,243.21,1.11,364.82.9,121.07-.2,240.39-7,360.88-18.79,115.51-11.34,230.41-21,346.57-19.92,110.56,1,221,7.24,331.25,15.1,232.42,16.58,464.07,37.85,697.33,36.38,305.06-1.92,610-11.64,915.08-13" transform="translate(-0.48 -319.89)"/><path class="cls-34" d="M.5,603.37c274.66,2.2,549.35-3.18,824-2.19,121.63.44,243.25,2.85,364.89,2.6a3449,3449,0,0,0,361.36-20c115.78-12.37,230.6-22.3,347.13-21.1,110.79,1.14,221.42,8.28,331.82,17.29,233,19,465.15,44.16,699.24,41.76,303.91-3.12,607.63-15.71,911.55-18.35" transform="translate(-0.48 -319.89)"/><path class="cls-35" d="M.5,595c274.63,2.85,549.26-6.66,823.92-4.45,121.67,1,243.3,5,365,4.92,121.85-.07,241.14-7.6,362.17-21.84,116.14-13.67,231-24.43,348.06-23,111,1.35,221.88,9.5,332.42,19.75,233.51,21.67,466.22,50.89,701.18,47.7C3235.74,614,3538,598.72,3840.5,595" transform="translate(-0.48 -319.89)"/><path class="cls-36" d="M.5,587.07c274.63,3.17,549.13-11.22,823.8-7.36,121.72,1.71,243.36,7.51,365.1,7.8,122.47.29,241.84-8.39,363.29-24.22,116.56-15.2,231.6-27.3,349.29-25.57,111.32,1.63,222.37,10.87,333.05,22.44,234,24.45,467.28,57.94,703.13,54.12,300.9-4.88,601.43-22.67,902.34-27.21" transform="translate(-0.48 -319.89)"/><path class="cls-37" d="M.5,579.51c274.64,3.2,549-16.74,823.66-10.87,121.78,2.6,243.41,10.35,365.23,11.17,123.24.82,242.75-9.44,364.67-27.08,117-16.93,232.37-30.81,350.81-28.71,111.61,2,222.88,12.39,333.69,25.32,234.47,27.37,468.32,65.29,705.1,61,299.11-5.47,597.72-25.6,896.84-30.79" transform="translate(-0.48 -319.89)"/><path class="cls-38" d="M.5,572.33c274.66,3,548.73-23.09,823.49-14.88,121.86,3.64,243.47,13.48,365.39,15,124.11,1.51,243.84-10.73,366.29-30.35,117.51-18.83,233.28-34.9,352.57-32.35,111.91,2.39,223.4,14,334.35,28.35,234.89,30.39,469.32,72.83,707,68.12,297.15-5.89,593.7-28.18,890.86-33.86" transform="translate(-0.48 -319.89)"/><path class="cls-39" d="M.5,565.54c274.69,2.55,548.49-30.13,823.31-19.32,121.94,4.8,243.52,16.86,365.56,19.14,125.08,2.33,245.11-12.23,368.1-34,118-20.86,234.33-39.46,354.53-36.43,112.23,2.84,223.95,15.71,335,31.51,235.28,33.47,470.3,80.51,709,75.53,295.06-6.15,589.4-30.44,884.48-36.45" transform="translate(-0.48 -319.89)"/><path class="cls-40" d="M.5,559.15c274.72,1.93,548.22-37.76,823.12-24.11,122,6.06,243.55,20.43,365.74,23.6,126.12,3.27,246.53-13.92,370.07-37.9,118.45-23,235.5-44.42,356.65-40.86,112.57,3.31,224.5,17.47,335.68,34.74,235.64,36.6,471.23,88.26,710.94,83.13,292.88-6.27,584.91-32.41,877.8-38.6" transform="translate(-0.48 -319.89)"/><path class="cls-41" d="M.5,553.15c274.74,1.19,548-45.82,822.91-29.17,122.13,7.39,243.58,24.15,365.93,28.29,127.22,4.31,248.11-15.76,372.17-42,118.88-25.19,236.77-49.68,358.92-45.57,112.9,3.8,225,19.26,336.33,38,236,39.75,472.1,96,712.83,90.84,290.63-6.26,580.28-34.11,870.91-40.36" transform="translate(-0.48 -319.89)"/><path class="cls-42" d="M.5,547.56c274.76.33,547.68-54.23,822.7-34.45,122.24,8.79,243.6,28,366.13,33.16,128.34,5.42,249.81-17.73,374.35-46.36,119.26-27.41,238.12-55.14,361.27-50.48,113.24,4.3,225.61,21.08,337,41.3,236.28,42.89,472.91,103.7,714.7,98.56,288.33-6.12,575.55-35.56,863.88-41.73" transform="translate(-0.48 -319.89)"/><path class="cls-43" d="M.5,542.36c274.76-.58,547.42-62.82,822.48-39.83,122.36,10.22,243.6,31.88,366.33,38.12,129.48,6.59,251.62-19.79,376.6-50.77,119.58-29.64,239.52-60.74,363.68-55.52,113.57,4.78,226.15,22.87,337.58,44.54,236.57,46,473.66,111.26,716.53,106.25,286-5.89,570.79-36.78,856.8-42.79" transform="translate(-0.48 -319.89)"/><path class="cls-44" d="M.5,537.56c274.74-1.5,547.17-71.47,822.25-45.26,122.5,11.67,243.6,35.8,366.54,43.13,130.6,7.79,253.5-21.91,378.87-55.22,119.85-31.84,240.94-66.38,366.1-60.62,113.91,5.25,226.68,24.62,338.17,47.72,236.86,49.06,474.33,118.6,718.3,113.82,283.7-5.57,566.06-37.82,849.77-43.57" transform="translate(-0.48 -319.89)"/><path class="cls-45" d="M.5,533.17c274.71-2.42,546.92-80.08,822-50.66,122.63,13.11,243.58,39.69,366.74,48.11,131.7,9,255.43-24.07,381.12-59.64,120.09-34,242.36-72,368.51-65.7,114.24,5.68,227.19,26.31,338.73,50.79,237.13,52,474.91,125.67,720,121.18,281.45-5.16,561.43-38.66,842.88-44.08" transform="translate(-0.48 -319.89)"/><path class="cls-46" d="M.5,529.19c274.68-3.29,546.69-88.51,821.82-56,122.76,14.52,243.54,43.53,366.94,53,132.75,10.18,257.36-26.21,383.32-64,120.27-36.06,243.73-77.39,370.86-70.67,114.56,6.06,227.68,27.9,339.23,53.71,237.43,54.92,475.41,132.41,721.63,128.27,279.26-4.69,556.94-39.35,836.2-44.37" transform="translate(-0.48 -319.89)"/><path class="cls-47" d="M.5,525.61c274.66-4.05,546.44-96.63,821.61-61.06C945,480.43,1065.6,511.8,1189.24,522.27,1323,533.6,1448.51,494,1574.68,454.12c120.45-38,245-82.59,373.11-75.48C2062.66,385,2175.93,408,2287.5,435.09c237.73,57.68,475.8,138.74,723.18,135,277.16-4.18,552.65-39.92,829.82-44.5" transform="translate(-0.48 -319.89)"/><path class="cls-48" d="M.5,522.45c274.65-4.7,546.19-104.33,821.41-65.91,123,17.17,243.43,50.83,367.32,62.23,134.72,12.41,261.1-30.3,387.43-72.11,120.61-39.92,246.23-87.47,375.24-80.05,115.15,6.63,228.57,30.72,340.11,59,238.07,60.3,476.11,144.61,724.65,141.34,275.2-3.62,548.63-40.38,823.84-44.47" transform="translate(-0.48 -319.89)"/><path class="cls-49" d="M.5,519.7c274.66-5.17,545.92-111.48,821.23-70.42,123.16,18.37,243.35,54.21,367.49,66.46,135.62,13.38,262.81-32.17,389.27-75.8,120.78-41.68,247.27-91.93,377.2-84.28,115.4,6.79,228.94,31.88,340.45,61.23,238.45,62.75,476.31,149.92,726,147.15,273.4-3,544.93-40.76,818.34-44.34" transform="translate(-0.48 -319.89)"/><path class="cls-50" d="M.5,517.36c274.72-5.42,545.61-117.95,821.06-74.5,123.3,19.45,243.27,57.25,367.65,70.32,136.4,14.33,264.41-33.86,390.92-79.14,121-43.29,248.13-95.88,379-88.12,115.62,6.85,229.27,32.86,340.72,63.2,238.87,65,476.41,154.63,727.28,152.39,271.79-2.43,541.61-41.1,813.41-44.15" transform="translate(-0.48 -319.89)"/><path class="cls-51" d="M.5,515.45C275.34,510,545.77,391.81,821.41,437.34c123.43,20.39,243.18,60.12,367.79,73.78,137.17,15,265.74-35.31,392.35-82.08,121.21-44.77,248.76-99.23,380.47-91.49,115.82,6.8,229.55,33.61,340.92,64.83,239.35,67.09,476.39,158.69,728.42,157,270.4-1.82,538.73-41.4,809.14-43.92" transform="translate(-0.48 -319.89)"/><path class="cls-52" d="M.5,514c275-5.18,544.87-128.41,820.79-81.13,123.54,21.16,243.07,62.66,367.91,76.74C1327.07,525.12,1456,473.1,1582.72,425c121.49-46.1,249.13-101.89,381.69-94.33,116,6.62,229.77,34.12,341,66.1,239.88,68.94,476.26,162,729.45,160.85,269.24-1.22,536.34-41.7,805.6-43.7" transform="translate(-0.48 -319.89)"/><path class="cls-53" d="M.5,512.88c275.25-4.6,544.42-132.14,820.69-83.52,123.64,21.76,243,64.84,368,79.17,138.5,15.86,267.56-37.28,394.39-86.47,121.85-47.26,249.22-103.76,382.61-96.53,116.08,6.3,229.91,34.36,341.06,67C2547.75,463,2783.29,557,3037.6,556.4c268.38-.64,534.51-42,802.9-43.52" transform="translate(-0.48 -319.89)"/><path class="cls-54" d="M.5,512.22c275.56-3.64,543.92-134.7,820.63-85.17,123.73,22.15,242.85,66.62,368.08,81,139,15.94,268-37.7,394.92-87.8,122.3-48.25,249-104.76,383.18-98,116.13,5.82,230,34.28,341,67.37,241.15,71.88,475.69,166.18,731.08,166.09,267.82-.1,533.29-42.41,801.12-43.44" transform="translate(-0.48 -319.89)"/><path class="cls-55" d="M.5,512c275.93-2.29,543.38-136,820.59-86,123.81,22.31,242.74,68,368.13,82.11,139.52,15.74,267.93-37.68,395.09-88.47,122.84-49.06,248.44-104.78,383.35-98.77,116.13,5.17,230,33.88,340.82,67.3C2427,423.89,2543.6,466,2662.85,499.49c124.12,34.82,248.24,55.77,377.31,56,267.59.41,532.73-42.87,800.34-43.46" transform="translate(-0.48 -319.89)"/></svg>