<svg xmlns="http://www.w3.org/2000/svg" viewBox="0 0 320.7 72.64"><defs><style>.cls-1{fill:#0099cd;}.cls-2{fill:#706f6f;stroke-width:0.5px;}.cls-2,.cls-3{stroke:#fff;stroke-miterlimit:10;}.cls-3{fill:#00a19a;stroke-width:1.5px;}</style></defs><title>Logo_1</title><g id="Layer_2" data-name="Layer 2"><g id="Layer_1-2" data-name="Layer 1"><path class="cls-1" d="M245,37.79q0,5.4-1.92,7.84a7.55,7.55,0,0,1-11.13,0Q230,43.19,230,37.79l-.25-19.18H213.2l.25,19.67a27,27,0,0,0,2.05,10.86H202.62L176.21,12.45H138.13V37.79q0,5.4-1.92,7.84a7.55,7.55,0,0,1-11.13,0q-1.93-2.45-1.93-7.84l.08-31.41h-16.6v31.9a27.25,27.25,0,0,0,2,10.71l-.59-.35H80.73V12.45l-16.52.06-45.08-.06v49H35.65V45.77H56.09V33.31H35.65v-8.4L64.21,25V61.45H130l0,0,.58,0q11.28,0,17.57-6.09t6.3-17.08l-.11-13.51h12.18l26.15,36.68h44.73q11.27,0,17.57-6.09t6.3-17.08V11.33H245Z"/><path class="cls-1" d="M307,37.65a16.46,16.46,0,0,0-6.69-4.44,64.23,64.23,0,0,0-9.45-2.42,40.26,40.26,0,0,1-6.23-1.57c-1.26-.49-1.89-1.23-1.89-2.21q0-3.07,6.37-3.08a30.49,30.49,0,0,1,13.65,3.64l5-12a30.88,30.88,0,0,0-8.57-3.18,45.05,45.05,0,0,0-9.91-1.09,32.22,32.22,0,0,0-12.49,2.17A17.17,17.17,0,0,0,269,19.45a14.51,14.51,0,0,0-2.59,8.4q0,5.32,2.8,8.44a16.19,16.19,0,0,0,6.58,4.48,71.4,71.4,0,0,0,9.45,2.55A42.54,42.54,0,0,1,291.61,45q1.92.78,1.92,2.31a2.14,2.14,0,0,1-1.47,2,13,13,0,0,1-4.9.66,30.87,30.87,0,0,1-8.33-1.22A33.78,33.78,0,0,1,271,45.49l-5.32,12a31.8,31.8,0,0,0,9.49,3.68A51.36,51.36,0,0,0,287,62.57a31.7,31.7,0,0,0,12.5-2.2,17.48,17.48,0,0,0,7.73-5.95,14.37,14.37,0,0,0,2.59-8.37Q309.84,40.74,307,37.65Z"/><path class="cls-2" d="M313.7,8.09l-87.81,0a20.34,20.34,0,0,0-16.46,8.38l-30.55,42a20.34,20.34,0,0,1-16.46,8.38H7V64.72H144.68a20.35,20.35,0,0,0,16.46-8.39l30.54-42a20.36,20.36,0,0,1,16.47-8.39H313.7Z"/><circle class="cls-3" cx="7.01" cy="65.64" r="6.26"/><circle class="cls-3" cx="313.7" cy="7.01" r="6.26"/><circle class="cls-3" cx="19.13" cy="12.49" r="6.26"/><circle class="cls-3" cx="271.93" cy="48.13" r="6.26"/><circle class="cls-3" cx="108.02" cy="48.64" r="6.26"/></g></g></svg>